<svg xmlns="http://www.w3.org/2000/svg" viewBox="0 0 400 400" width="400" height="400">
  <rect width="400" height="400" fill="#f0f5f5"/>
  <!-- Jarrón bajo boca ancha - esmalte reactivo verde/azul -->
  <ellipse cx="200" cy="305" rx="85" ry="14" fill="#0e7490" opacity="0.25"/>
  <!-- Cuerpo redondeado -->
  <path d="M128 225 Q118 260 125 280 Q148 310 200 312 Q252 310 275 280 Q282 260 272 225 Q248 200 200 198 Q152 200 128 225 Z" fill="#0e7490"/>
  <!-- Esmalte reactivo - zonas de color -->
  <path d="M140 240 Q165 225 200 228 Q235 225 260 240 Q248 265 220 272 Q200 276 180 272 Q152 265 140 240Z" fill="#059669" opacity="0.6"/>
  <path d="M155 258 Q185 248 215 255 Q235 262 228 278 Q215 286 200 287 Q185 286 172 278 Q165 262 155 258Z" fill="#0891b2" opacity="0.5"/>
  <!-- Boca ancha -->
  <ellipse cx="200" cy="225" rx="72" ry="15" fill="#0c5a6e"/>
  <ellipse cx="200" cy="222" rx="60" ry="11" fill="#083344"/>
  <!-- Reflejo de luz -->
  <path d="M145 238 Q168 230 185 238" stroke="#67e8f9" stroke-width="2" fill="none" opacity="0.5"/>
  <text x="200" y="358" text-anchor="middle" font-family="Georgia, serif" font-size="14" fill="#0c5a6e" opacity="0.8">Jarrón Bajo Boca Ancha</text>
</svg>