<svg xmlns="http://www.w3.org/2000/svg" viewBox="0 0 400 400" width="400" height="400">
  <rect width="400" height="400" fill="#f5f7f0"/>
  <!-- Figura decorativa cactus -->
  <ellipse cx="200" cy="318" rx="35" ry="8" fill="#15803d" opacity="0.3"/>
  <!-- Tronco principal -->
  <path d="M185 200 Q182 248 184 308 Q192 318 200 318 Q208 318 216 308 Q218 248 215 200 Z" fill="#166534"/>
  <!-- Brazo izquierdo -->
  <path d="M184 238 Q165 238 160 225 Q155 212 162 205 Q170 200 178 205 Q184 210 184 220" fill="#166534"/>
  <path d="M160 225 Q155 215 158 205" stroke="#14532d" stroke-width="2" fill="none"/>
  <!-- Brazo derecho -->
  <path d="M216 250 Q235 250 240 237 Q245 224 238 217 Q230 212 222 217 Q216 222 216 232" fill="#166534"/>
  <!-- Espinas blancas -->
  <line x1="192" y1="215" x2="188" y2="210" stroke="white" stroke-width="1.5" opacity="0.8"/>
  <line x1="192" y1="230" x2="187" y2="225" stroke="white" stroke-width="1.5" opacity="0.8"/>
  <line x1="192" y1="245" x2="187" y2="240" stroke="white" stroke-width="1.5" opacity="0.8"/>
  <line x1="192" y1="260" x2="187" y2="255" stroke="white" stroke-width="1.5" opacity="0.8"/>
  <line x1="208" y1="215" x2="212" y2="210" stroke="white" stroke-width="1.5" opacity="0.8"/>
  <line x1="208" y1="230" x2="213" y2="225" stroke="white" stroke-width="1.5" opacity="0.8"/>
  <line x1="208" y1="245" x2="213" y2="240" stroke="white" stroke-width="1.5" opacity="0.8"/>
  <line x1="208" y1="260" x2="213" y2="255" stroke="white" stroke-width="1.5" opacity="0.8"/>
  <!-- Puntitos blancos decorativos -->
  <circle cx="193" cy="280" r="2" fill="white" opacity="0.7"/>
  <circle cx="207" cy="290" r="2" fill="white" opacity="0.7"/>
  <circle cx="200" cy="270" r="2" fill="white" opacity="0.7"/>
  <!-- Corona/flor arriba -->
  <ellipse cx="200" cy="198" rx="16" ry="8" fill="#4ade80"/>
  <circle cx="200" cy="193" r="6" fill="#86efac"/>
  <text x="200" y="358" text-anchor="middle" font-family="Georgia, serif" font-size="14" fill="#166534" opacity="0.8">Figura Decorativa Cactus</text>
</svg>